<svg xmlns="http://www.w3.org/2000/svg" width="575.186" height="332.583" viewBox="0 0 575.186 332.583">
  <g id="gym_101076" transform="translate(-5.38 -23.659)">
    <g id="New_Symbol_79" data-name="New Symbol 79" transform="translate(6.88 354.741)">
      <line id="Ligne_1" data-name="Ligne 1" x1="34.364" transform="translate(537.822)" fill="none" stroke="#524e4e" stroke-linecap="round" stroke-linejoin="round" stroke-width="3"/>
      <path id="Tracé_1" data-name="Tracé 1" d="M200.435,74.84H63.11" transform="translate(309.922 -74.84)" fill="none" stroke="#524e4e" stroke-linecap="round" stroke-linejoin="round" stroke-width="3"/>
      <path id="Tracé_2" data-name="Tracé 2" d="M6.88,74.84H352.447" transform="translate(-6.88 -74.84)" fill="none" stroke="#524e4e" stroke-linecap="round" stroke-linejoin="round" stroke-width="3"/>
    </g>
    <path id="Tracé_3" data-name="Tracé 3" d="M251.387,61.773v129.7h-27.8V86.385H86.266V191.469H59V61.773a7.7,7.7,0,0,1,7.629-7.629h176.8a7.7,7.7,0,0,1,7.961,7.629Z" transform="translate(293.646 163.273)" fill="none" stroke="#524e4e" stroke-linecap="round" stroke-linejoin="round" stroke-width="3"/>
    <rect id="Rectangle_1" data-name="Rectangle 1" width="137.325" height="105.282" transform="translate(379.912 249.459)" stroke-width="3" stroke="#524e4e" stroke-linecap="round" stroke-linejoin="round" fill="none"/>
    <path id="Tracé_4" data-name="Tracé 4" d="M217.365,32.791V217.417H61.73V32.791a7.7,7.7,0,0,1,7.629-7.629H209.47a7.7,7.7,0,0,1,7.895,7.629Z" transform="translate(309.027 0)" fill="none" stroke="#524e4e" stroke-linecap="round" stroke-linejoin="round" stroke-width="3"/>
    <rect id="Rectangle_2" data-name="Rectangle 2" width="302.114" height="18.31" transform="translate(68.643 112.135)" stroke-width="3" stroke="#524e4e" stroke-linecap="round" stroke-linejoin="round" fill="none"/>
    <rect id="Rectangle_3" data-name="Rectangle 3" width="302.114" height="18.31" transform="translate(68.643 162.487)" stroke-width="3" stroke="#524e4e" stroke-linecap="round" stroke-linejoin="round" fill="none"/>
    <path id="Tracé_5" data-name="Tracé 5" d="M59.866,72.085H27.823A9.155,9.155,0,0,0,19,81.24h0A9.155,9.155,0,0,0,28.155,90.4H60.2a9.155,9.155,0,0,0,9.155-9.155h0a9.155,9.155,0,0,0-9.487-9.155Z" transform="translate(68.285 264.346)" fill="none" stroke="#524e4e" stroke-linecap="round" stroke-linejoin="round" stroke-width="3"/>
    <path id="Tracé_6" data-name="Tracé 6" d="M19,127.885V83.569a14.6,14.6,0,0,1,4.246-10.283L32.268,63.8H55.156l9.487,9.487a14.6,14.6,0,0,1,4.246,10.283v44.315" transform="translate(68.285 217.702)" fill="none" stroke="#524e4e" stroke-linecap="round" stroke-linejoin="round" stroke-width="3"/>
    <path id="Tracé_7" data-name="Tracé 7" d="M44.026,79.578H21.006V68.9A7.563,7.563,0,0,1,28.768,61H36.4a7.563,7.563,0,0,1,7.629,7.629Z" transform="translate(79.546 201.924)" fill="none" stroke="#524e4e" stroke-linecap="round" stroke-linejoin="round" stroke-width="3"/>
    <path id="Tracé_8" data-name="Tracé 8" d="M84.2,81.235a9.155,9.155,0,0,0-9.155-9.155H42.935a9.155,9.155,0,0,0-9.155,9.155h0a9.155,9.155,0,0,0,9.155,9.155H75.044a9.155,9.155,0,0,0,9.221-9.155Z" transform="translate(151.556 264.352)" fill="none" stroke="#524e4e" stroke-linecap="round" stroke-linejoin="round" stroke-width="3"/>
    <path id="Tracé_9" data-name="Tracé 9" d="M33.78,127.885V83.569a14.6,14.6,0,0,1,4.312-10.283l9.42-9.487H70.466l9.42,9.487A14.6,14.6,0,0,1,84.2,83.569v44.315" transform="translate(151.556 217.702)" fill="none" stroke="#524e4e" stroke-linecap="round" stroke-linejoin="round" stroke-width="3"/>
    <path id="Tracé_10" data-name="Tracé 10" d="M58.808,79.576H35.854V68.895A7.629,7.629,0,0,1,43.483,61h7.629a7.629,7.629,0,0,1,7.7,7.629Z" transform="translate(163.214 201.926)" fill="none" stroke="#524e4e" stroke-linecap="round" stroke-linejoin="round" stroke-width="3"/>
    <path id="Tracé_11" data-name="Tracé 11" d="M98.972,81.235a9.155,9.155,0,0,0-9.155-9.155H57.775a9.155,9.155,0,0,0-9.155,9.155h0a9.155,9.155,0,0,0,9.155,9.155H89.817a9.155,9.155,0,0,0,9.155-9.155Z" transform="translate(235.165 264.352)" fill="none" stroke="#524e4e" stroke-linecap="round" stroke-linejoin="round" stroke-width="3"/>
    <path id="Tracé_12" data-name="Tracé 12" d="M48.62,127.885V83.569a14.6,14.6,0,0,1,4.246-10.283L62.352,63.8H85.24l9.487,9.487a14.6,14.6,0,0,1,4.246,10.283v44.315" transform="translate(235.165 217.702)" fill="none" stroke="#524e4e" stroke-linecap="round" stroke-linejoin="round" stroke-width="3"/>
    <path id="Tracé_13" data-name="Tracé 13" d="M73.584,79.576H50.7V68.895A7.563,7.563,0,0,1,58.325,61h7.7a7.563,7.563,0,0,1,7.629,7.629Z" transform="translate(246.821 201.926)" fill="none" stroke="#524e4e" stroke-linecap="round" stroke-linejoin="round" stroke-width="3"/>
    <path id="Tracé_14" data-name="Tracé 14" d="M318.3,48.62V85.24H307.624a7.7,7.7,0,0,0-7.43,7.629v129.7h-284V48.62Z" transform="translate(52.453 132.177)" fill="none" stroke="#524e4e" stroke-linecap="round" stroke-linejoin="round" stroke-width="3"/>
    <rect id="Rectangle_4" data-name="Rectangle 4" width="137.325" height="105.282" transform="translate(379.912 249.459)" stroke-width="3" stroke="#524e4e" stroke-linecap="round" stroke-linejoin="round" fill="none"/>
    <path id="Tracé_15" data-name="Tracé 15" d="M12.05,296.433H39.515V43.145a7.563,7.563,0,0,0-7.895-7.629H19.679a7.563,7.563,0,0,0-7.629,7.629Z" transform="translate(29.128 58.308)" fill="none" stroke="#524e4e" stroke-linecap="round" stroke-linejoin="round" stroke-width="3"/>
    <rect id="Rectangle_5" data-name="Rectangle 5" width="302.114" height="32.042" transform="translate(68.643 130.444)" stroke-width="3" stroke="#524e4e" stroke-linecap="round" stroke-linejoin="round" fill="none"/>
    <rect id="Rectangle_6" data-name="Rectangle 6" width="137.325" height="105.282" transform="translate(379.912 249.459)" stroke-width="3" stroke="#524e4e" stroke-linecap="round" stroke-linejoin="round" fill="none"/>
    <rect id="Rectangle_7" data-name="Rectangle 7" width="27.465" height="64.085" transform="translate(421.11 290.657)" stroke-width="3" stroke="#524e4e" stroke-linecap="round" stroke-linejoin="round" fill="none"/>
    <rect id="Rectangle_8" data-name="Rectangle 8" width="27.465" height="64.085" transform="translate(448.575 290.657)" stroke-width="3" stroke="#524e4e" stroke-linecap="round" stroke-linejoin="round" fill="none"/>
    <circle id="Ellipse_1" data-name="Ellipse 1" cx="54.93" cy="54.93" r="54.93" transform="translate(393.645 52.627)" stroke-width="3" stroke="#524e4e" stroke-linecap="round" stroke-linejoin="round" fill="none"/>
    <path id="Tracé_16" data-name="Tracé 16" d="M101.872,65.771,95.238,72.4a4.577,4.577,0,0,1-6.634,0L69.3,52.5a4.578,4.578,0,0,1,0-6.634l6.634-6.634a4.511,4.511,0,0,1,6.634,0l19.305,19.9a4.511,4.511,0,0,1,0,6.634Z" transform="translate(343.651 71.109)" fill="none" stroke="#524e4e" stroke-linecap="round" stroke-linejoin="round" stroke-width="3"/>
    <path id="Tracé_17" data-name="Tracé 17" d="M107.277,59.639l-6.634,6.634a4.511,4.511,0,0,1-6.634,0L75.235,46.637a4.511,4.511,0,0,1,0-6.634l6.634-6.634a4.577,4.577,0,0,1,6.634,0L107.94,52.806a4.577,4.577,0,0,1-.663,6.833Z" transform="translate(376.922 38.232)" fill="none" stroke="#524e4e" stroke-linecap="round" stroke-linejoin="round" stroke-width="3"/>
    <rect id="Rectangle_9" data-name="Rectangle 9" width="36.62" height="18.31" transform="translate(429.137 114.023) rotate(-45)" stroke-width="3" stroke="#524e4e" stroke-linecap="round" stroke-linejoin="round" fill="none"/>
    <line id="Ligne_2" data-name="Ligne 2" y1="41.197" transform="translate(421.11 249.459)" fill="none" stroke="#524e4e" stroke-linecap="round" stroke-linejoin="round" stroke-width="3"/>
    <line id="Ligne_3" data-name="Ligne 3" y1="41.197" transform="translate(476.04 249.459)" fill="none" stroke="#524e4e" stroke-linecap="round" stroke-linejoin="round" stroke-width="3"/>
    <line id="Ligne_4" data-name="Ligne 4" x2="41.197" transform="translate(476.04 322.699)" fill="none" stroke="#524e4e" stroke-linecap="round" stroke-linejoin="round" stroke-width="3"/>
    <line id="Ligne_5" data-name="Ligne 5" x1="41.197" transform="translate(379.912 322.699)" fill="none" stroke="#524e4e" stroke-linecap="round" stroke-linejoin="round" stroke-width="3"/>
    <line id="Ligne_6" data-name="Ligne 6" y2="173.945" transform="translate(155.615 180.797)" fill="none" stroke="#524e4e" stroke-linecap="round" stroke-linejoin="round" stroke-width="3"/>
    <line id="Ligne_7" data-name="Ligne 7" y2="173.945" transform="translate(283.785 180.797)" fill="none" stroke="#524e4e" stroke-linecap="round" stroke-linejoin="round" stroke-width="3"/>
    <line id="Ligne_8" data-name="Ligne 8" x2="283.804" transform="translate(68.643 221.994)" fill="none" stroke="#524e4e" stroke-linecap="round" stroke-linejoin="round" stroke-width="3"/>
    <line id="Ligne_9" data-name="Ligne 9" x2="283.804" transform="translate(68.643 313.544)" fill="none" stroke="#524e4e" stroke-linecap="round" stroke-linejoin="round" stroke-width="3"/>
  </g>
</svg>
